<?xml version="1.0" encoding="utf-8"?>
<!-- Generator: Adobe Illustrator 23.0.3, SVG Export Plug-In . SVG Version: 6.00 Build 0)  -->
<svg version="1.1" xmlns="http://www.w3.org/2000/svg" xmlns:xlink="http://www.w3.org/1999/xlink" x="0px" y="0px"
	 viewBox="0 0 162.3 39.6" style="enable-background:new 0 0 162.3 39.6;" xml:space="preserve">
<g id="Capa_1">
	<g>
		<g>
			<path d="M27.7,16.8c0.2-1.3,0.1-2.6-0.2-3.8L27,11.5c-0.6-1.7-2.4-2.5-4-2c-0.9,0.3-1.7,1-2,2L20.6,13c-0.4,1.2-0.5,2.5-0.2,3.8
				c0.2,1.1,0.9,2,1.8,2.5l-0.5,11.1c-0.1,0.6,0.1,1.2,0.6,1.7c0.9,1,2.4,1.1,3.4,0.2c0.1,0,0.1-0.1,0.2-0.2c0.4-0.4,0.6-1,0.6-1.7
				l-0.5-11.1C26.8,18.8,27.5,17.9,27.7,16.8z M26.3,16.6c-0.1,0.8-0.7,1.4-1.4,1.6c-0.3,0.1-0.5,0.4-0.4,0.7L25,30.5
				c0,0.2-0.1,0.5-0.2,0.6c-0.4,0.4-1.1,0.4-1.5,0C23.1,31,23,30.7,23,30.5l0.5-11.6c0-0.3-0.2-0.6-0.4-0.7
				c-0.7-0.3-1.3-0.9-1.4-1.6c-0.2-1.1-0.1-2.1,0.2-3.2l0.4-1.5c0.3-0.9,1.4-1.4,2.3-1.1c0.5,0.2,0.9,0.6,1.1,1.1l0.4,1.5
				C26.4,14.4,26.5,15.5,26.3,16.6z"/>
		</g>
		<g>
			<path d="M17.4,16.3v-6.2c0-0.4-0.3-0.7-0.7-0.7c-0.4,0-0.7,0.3-0.7,0.7V16l-1.9,1.9C14.1,18,14,18.2,14,18.4l0.6,12.1
				c0,0.3-0.1,0.5-0.3,0.7c-0.4,0.4-1,0.4-1.4,0c0,0,0,0,0,0c-0.2-0.2-0.3-0.4-0.3-0.7l0.6-12.1c0-0.2-0.1-0.4-0.2-0.5L11.2,16v-5.9
				c0-0.4-0.3-0.7-0.7-0.7c-0.4,0-0.7,0.3-0.7,0.7v6.2c0,0.2,0.1,0.4,0.2,0.5l1.9,1.9l-0.6,11.8c-0.1,1.3,0.9,2.4,2.2,2.4
				s2.4-0.9,2.4-2.2c0-0.1,0-0.2,0-0.2l-0.6-11.8l1.9-1.9C17.4,16.7,17.4,16.5,17.4,16.3z"/>
		</g>
		<g>
			<path d="M13.3,15.6v-5.5c0-0.4-0.3-0.7-0.7-0.7c-0.4,0-0.7,0.3-0.7,0.7v5.5c0,0.4,0.3,0.7,0.7,0.7C13,16.3,13.3,16,13.3,15.6z"/>
		</g>
		<g>
			<path d="M14,10.1v5.5c0,0.4,0.3,0.7,0.7,0.7c0.4,0,0.7-0.3,0.7-0.7v-5.5c0-0.4-0.3-0.7-0.7-0.7C14.3,9.4,14,9.7,14,10.1z"/>
		</g>
		<g>
			<path d="M17.2,33.5c1.1,0.1,2.2,0.1,3.2,0c0.4,0,0.7-0.4,0.6-0.8c0-0.4-0.4-0.7-0.8-0.6c0,0,0,0,0,0l0,0c-1,0.1-2,0.1-2.9,0
				c-0.4,0-0.7,0.2-0.8,0.6S16.8,33.4,17.2,33.5z"/>
		</g>
		<g>
			<path d="M28.6,29.5c5.1-5.1,5.4-13.2,0.8-18.7c-0.2-0.3-0.7-0.3-1-0.1c0,0,0,0,0,0c-0.3,0.2-0.3,0.7-0.1,1
				c4.2,4.9,3.8,12.3-0.7,16.8c-0.3,0.3-0.3,0.7,0,1C27.9,29.8,28.3,29.8,28.6,29.5z"/>
		</g>
		<g>
			<polygon points="14.2,8.2 14.2,8.2 14.2,8.2 			"/>
		</g>
		<g>
			<path d="M21.8,7.7c0.4,0.1,0.7-0.1,0.8-0.5c0.1-0.4-0.1-0.7-0.5-0.8c-2.7-0.6-5.5-0.5-8.1,0.5c-0.4,0.1-0.5,0.5-0.4,0.9
				c0.1,0.3,0.4,0.4,0.6,0.4c0.1,0,0.2,0,0.2,0C16.8,7.2,19.3,7.1,21.8,7.7z"/>
		</g>
		<g>
			<path d="M8.6,11.5c-0.3-0.2-0.7-0.2-1,0.1c0,0,0,0,0,0c-4,5.5-3.4,13.1,1.4,17.9c0.3,0.3,0.7,0.3,1,0c0.3-0.3,0.3-0.7,0-1
				c-2.3-2.3-3.6-5.5-3.6-8.8c0-2.6,0.8-5.2,2.4-7.3C9,12.1,8.9,11.7,8.6,11.5z"/>
		</g>
		<g>
			<path d="M5.2,11.8c0-0.4-0.3-0.7-0.7-0.7H2.6c1.5-2.7,3.6-5,6.2-6.7c3-1.9,6.4-3,10-3s7,1,10,3c2.9,1.9,5.2,4.6,6.7,7.7
				c0.2,0.3,0.6,0.5,0.9,0.3c0.3-0.2,0.5-0.6,0.3-0.9c-1.6-3.4-4-6.2-7.2-8.3C26.4,1.1,22.7,0,18.8,0C15,0,11.2,1.1,8,3.2
				C5.2,5,2.9,7.5,1.4,10.5V8c0-0.4-0.3-0.7-0.7-0.7S0,7.6,0,8v3.8c0,0.4,0.3,0.7,0.7,0.7h3.8C4.9,12.5,5.2,12.2,5.2,11.8z"/>
		</g>
		<g>
			<path d="M36.8,27.1H33c-0.4,0-0.7,0.3-0.7,0.7c0,0.4,0.3,0.7,0.7,0.7h2c-1.5,2.7-3.6,5-6.2,6.7c-3,1.9-6.4,3-10,3s-7-1-10-3
				c-2.9-1.9-5.2-4.6-6.7-7.7C2,27.1,1.6,27,1.2,27.2c-0.3,0.2-0.5,0.6-0.3,0.9c1.6,3.4,4,6.2,7.2,8.3c3.2,2.1,6.9,3.2,10.8,3.2
				c3.8,0,7.6-1.1,10.8-3.2c2.7-1.8,4.9-4.2,6.5-7v2.2c0,0.4,0.3,0.7,0.7,0.7s0.7-0.3,0.7-0.7v-3.8C37.5,27.4,37.2,27.1,36.8,27.1z"
				/>
		</g>
	</g>
	<g>
		<g>
			<path d="M48,21h5.6v1.4h-7.1V10.7H48V21z"/>
			<path d="M57.8,17.9v-7.2h1.5v7.2c0,2,1.2,3.3,3.3,3.3c1.1,0,1.9-0.3,2.4-0.9c0.5-0.6,0.8-1.4,0.8-2.4v-7.2h1.5v7.2
				c0,3.1-1.7,4.7-4.7,4.7C59.4,22.6,57.8,21,57.8,17.9z M60.2,8.7c0-0.5,0.4-0.9,0.9-0.9c0.5,0,0.9,0.4,0.9,0.9
				c0,0.5-0.4,0.9-0.9,0.9C60.6,9.6,60.2,9.2,60.2,8.7z M62.9,8.7c0-0.5,0.4-0.9,0.9-0.9c0.6,0,0.9,0.4,0.9,0.9
				c0,0.5-0.4,0.9-0.9,0.9C63.3,9.6,62.9,9.2,62.9,8.7z"/>
			<path d="M73.2,22.5V10.7h1.6l6.2,9.5H81v-9.5h1.4v11.8h-1.6L74.7,13h-0.1v9.4H73.2z"/>
			<path d="M95.5,12.1h-5.4v3.6h5.1v1.4h-5.1V21h5.4v1.4h-6.9V10.7h6.9V12.1z"/>
			<path d="M100.2,22.3v-1.4l0.1,0c0.9,0.3,1.9,0.4,3,0.4c1.8,0,2.8-0.6,2.8-1.8c0-0.4-0.2-0.8-0.6-1.2c-0.4-0.4-1.1-0.8-2.3-1.3
				c-1.1-0.5-1.9-1-2.3-1.5c-0.4-0.5-0.6-1.1-0.6-1.8c0-1,0.3-1.7,1-2.3c0.7-0.5,1.6-0.8,2.8-0.8c0.9,0,1.8,0.1,2.8,0.4v1.4l-0.1,0
				c-0.9-0.3-1.8-0.4-2.8-0.4c-1.4,0-2.2,0.6-2.2,1.6c0,0.4,0.2,0.8,0.5,1.1c0.3,0.3,1,0.7,2.1,1.2c1.2,0.6,2,1.1,2.4,1.6
				c0.4,0.5,0.7,1.1,0.7,1.9c0,2.2-1.5,3.3-4.4,3.3C102.2,22.6,101.2,22.5,100.2,22.3z"/>
			<path d="M120.6,10.7h1.5v11.8h-1.5v-5.2h-6.4v5.2h-1.5V10.7h1.5v5.1h6.4V10.7z"/>
			<path d="M135.8,22.5l-1-2.5h-5.7l-1,2.5h-1.5l4.6-11.8h1.5l4.6,11.8H135.8z M129.7,18.5h4.5l-2.2-5.8H132L129.7,18.5z"/>
			<path d="M148.7,22.5l-3.4-4.8h-1.9v4.8H142V10.7h3.3c2.8,0,4.4,1.2,4.4,3.5c0,1.8-0.9,2.9-2.7,3.3l3.5,4.9H148.7z M143.5,12.1
				v4.1h1.8c1.9,0,2.9-0.7,2.9-2c0-1.5-1-2.1-2.9-2.1H143.5z"/>
			<path d="M162.3,12.1h-5.4v3.6h5.1v1.4h-5.1V21h5.4v1.4h-6.9V10.7h6.9V12.1z"/>
		</g>
		<g>
			<path d="M47,31.7h-0.5v-4.9h3.3v0.5H47v1.6h2.3v0.5H47V31.7z"/>
			<path d="M51.8,27.5c0.5-0.5,1.1-0.7,1.8-0.7c0.7,0,1.3,0.2,1.8,0.7c0.5,0.5,0.7,1.1,0.7,1.8c0,0.7-0.2,1.3-0.7,1.8
				c-0.5,0.5-1,0.7-1.8,0.7c-0.7,0-1.3-0.2-1.8-0.7c-0.5-0.5-0.7-1.1-0.7-1.8C51.1,28.6,51.3,28,51.8,27.5z M52.1,30.7
				c0.4,0.4,0.8,0.6,1.4,0.6c0.5,0,1-0.2,1.4-0.6c0.4-0.4,0.6-0.9,0.6-1.5s-0.2-1.1-0.6-1.5c-0.4-0.4-0.8-0.6-1.4-0.6
				c-0.5,0-1,0.2-1.4,0.6c-0.4,0.4-0.6,0.9-0.6,1.5S51.8,30.3,52.1,30.7z"/>
			<path d="M58.2,27.5c0.5-0.5,1.1-0.7,1.8-0.7c0.7,0,1.3,0.2,1.8,0.7c0.5,0.5,0.7,1.1,0.7,1.8c0,0.7-0.2,1.3-0.7,1.8
				c-0.5,0.5-1,0.7-1.8,0.7c-0.7,0-1.3-0.2-1.8-0.7c-0.5-0.5-0.7-1.1-0.7-1.8C57.5,28.6,57.7,28,58.2,27.5z M58.6,30.7
				c0.4,0.4,0.8,0.6,1.4,0.6s1-0.2,1.4-0.6c0.4-0.4,0.6-0.9,0.6-1.5s-0.2-1.1-0.6-1.5c-0.4-0.4-0.8-0.6-1.4-0.6s-1,0.2-1.4,0.6
				c-0.4,0.4-0.6,0.9-0.6,1.5S58.2,30.3,58.6,30.7z"/>
			<path d="M65.8,31.7h-1.6v-4.9h1.6c0.8,0,1.4,0.2,1.9,0.7c0.5,0.5,0.7,1,0.7,1.8c0,0.7-0.2,1.3-0.7,1.8
				C67.2,31.5,66.6,31.7,65.8,31.7z M64.7,27.3v4h1c0.7,0,1.2-0.2,1.6-0.5c0.4-0.4,0.6-0.8,0.6-1.4c0-0.6-0.2-1.1-0.6-1.4
				c-0.4-0.4-0.9-0.5-1.6-0.5H64.7z"/>
			<path d="M74,31.8c-0.4,0-0.7,0-1-0.1c-0.3-0.1-0.6-0.2-0.8-0.4v-0.6c0.2,0.2,0.4,0.3,0.8,0.4c0.3,0.1,0.7,0.2,1,0.2
				c0.4,0,0.7-0.1,1-0.3c0.2-0.2,0.4-0.4,0.4-0.7c0-0.3-0.1-0.5-0.4-0.7c-0.1,0-0.2-0.1-0.3-0.1l-0.3-0.1c0,0,0,0-0.1,0
				c0,0-0.1,0-0.1,0c0,0-0.1,0-0.2,0c-0.3-0.1-0.5-0.1-0.5-0.2c-0.1-0.1-0.3-0.1-0.4-0.2c-0.2-0.1-0.3-0.2-0.4-0.2
				c-0.2-0.2-0.3-0.5-0.3-0.8c0-0.4,0.1-0.7,0.4-0.9c0.3-0.2,0.7-0.4,1.2-0.4c0.6,0,1.1,0.1,1.5,0.4v0.5c-0.5-0.3-1-0.5-1.5-0.5
				c-0.4,0-0.7,0.1-0.9,0.2c-0.2,0.1-0.3,0.3-0.3,0.6c0,0.2,0.1,0.4,0.3,0.6c0,0,0.1,0.1,0.2,0.1l0.2,0.1l0.3,0.1l0.3,0.1
				c0.3,0.1,0.4,0.1,0.5,0.2c0.1,0,0.3,0.1,0.4,0.2c0.2,0.1,0.3,0.2,0.4,0.3c0.2,0.2,0.3,0.5,0.3,0.8c0,0.4-0.2,0.8-0.5,1
				C75,31.7,74.5,31.8,74,31.8z"/>
			<path d="M78,31.7h-0.5v-4.9H78v2h2.9v-2h0.5v4.9h-0.5v-2.4H78V31.7z"/>
			<path d="M83.4,31.7h-0.5l2.2-4.9h0.5l2.2,4.9h-0.5l-0.6-1.3H84L83.4,31.7z M85.3,27.4l-1.1,2.5h2.2L85.3,27.4z"/>
			<path d="M89.7,31.7h-0.5v-4.9h2.2c0.5,0,0.9,0.1,1.1,0.4c0.3,0.2,0.4,0.6,0.4,1c0,0.3-0.1,0.6-0.3,0.9c-0.2,0.2-0.5,0.4-0.8,0.4
				l1.6,2.2h-0.6l-1.5-2.2h-1.5V31.7z M89.7,27.3V29h1.6c0.3,0,0.6-0.1,0.8-0.2c0.2-0.2,0.3-0.4,0.3-0.6c0-0.3-0.1-0.5-0.3-0.6
				c-0.2-0.2-0.4-0.2-0.8-0.2H89.7z"/>
			<path d="M95.5,31.7h-0.5v-4.9h0.5V31.7z"/>
			<path d="M97.9,31.7h-0.5v-4.9h0.4l3.1,4v-4h0.5v4.9H101l-3.1-4V31.7z"/>
			<path d="M105.7,31.8c-0.7,0-1.3-0.2-1.8-0.7c-0.5-0.5-0.7-1.1-0.7-1.8c0-0.7,0.2-1.3,0.7-1.8c0.5-0.5,1.1-0.7,1.8-0.7
				c0.6,0,1.1,0.2,1.6,0.5v0.5c-0.5-0.3-1-0.5-1.5-0.5c-0.6,0-1.1,0.2-1.4,0.6c-0.4,0.4-0.6,0.9-0.6,1.5c0,0.6,0.2,1.1,0.6,1.5
				c0.4,0.4,0.8,0.6,1.4,0.6c0.6,0,1.1-0.2,1.4-0.5v-1.9h0.5V31c-0.2,0.2-0.5,0.4-0.8,0.6C106.4,31.7,106.1,31.8,105.7,31.8z"/>
		</g>
	</g>
</g>
<g id="Layer_2">
</g>
<g id="Layer_3">
</g>
<g id="Layer_4">
</g>
</svg>
