<?xml version="1.0" encoding="utf-8"?>
<!-- Generator: Adobe Illustrator 23.0.3, SVG Export Plug-In . SVG Version: 6.00 Build 0)  -->
<svg version="1.1" xmlns="http://www.w3.org/2000/svg" xmlns:xlink="http://www.w3.org/1999/xlink" x="0px" y="0px"
	 viewBox="0 0 121.8 128.5" style="enable-background:new 0 0 121.8 128.5;" xml:space="preserve">
<g id="Capa_1">
	<g>
		<g>
			<g>
				<path d="M89.9,54.6c0.7-4.1,0.5-8.3-0.7-12.3l-1.4-4.7c-1.8-5.4-7.7-8.3-13.1-6.4c-3,1-5.4,3.4-6.4,6.4l-1.4,4.7
					c-1.2,4-1.5,8.2-0.7,12.3c0.7,3.5,2.9,6.4,6,8.1l-1.6,36.1c-0.2,2,0.4,4,1.8,5.5c2.9,3.2,7.9,3.4,11.1,0.5
					c0.2-0.2,0.3-0.3,0.5-0.5c1.3-1.5,2-3.4,1.8-5.4l-1.6-36.2C87,61,89.2,58,89.9,54.6z M85.5,53.8c-0.5,2.5-2.3,4.5-4.7,5.4
					c-0.9,0.3-1.5,1.2-1.5,2.2l1.7,37.9c0.1,0.7-0.2,1.5-0.7,2c-1.4,1.3-3.5,1.3-4.9,0c-0.5-0.6-0.8-1.4-0.7-2.2l1.7-37.7
					c0-1-0.5-1.9-1.5-2.2c-2.4-0.8-4.2-2.9-4.7-5.4c-0.6-3.4-0.4-6.9,0.6-10.2l1.4-4.7c1.1-3,4.5-4.6,7.5-3.4
					c1.6,0.6,2.8,1.8,3.4,3.4l1.4,4.7C85.9,46.9,86.1,50.4,85.5,53.8z"/>
			</g>
			<g>
				<path d="M56.6,52.9V32.8c0-1.2-1-2.2-2.2-2.2c-1.2,0-2.2,1-2.2,2.2V52l-6.1,6.1c-0.4,0.4-0.7,1.1-0.7,1.7l2,39.3
					c0,0.8-0.3,1.7-0.8,2.3c-1.2,1.2-3.2,1.2-4.5,0c0,0,0,0,0,0c-0.6-0.6-0.9-1.4-0.8-2.3l2-39.3c0-0.6-0.2-1.2-0.7-1.7L36.5,52
					V32.8c0-1.2-1-2.2-2.2-2.2c-1.2,0-2.2,1-2.2,2.2v20.2c0,0.6,0.2,1.2,0.7,1.6l6,6l-1.9,38.3c-0.2,4.2,3,7.7,7.2,7.9
					s7.7-3,7.9-7.2c0-0.2,0-0.5,0-0.7L50,60.6l6-6C56.4,54.1,56.6,53.5,56.6,52.9z"/>
			</g>
			<g>
				<path d="M43.2,50.7V32.8c0-1.2-1-2.2-2.2-2.2c-1.2,0-2.2,1-2.2,2.2v17.9c0,1.2,1,2.2,2.2,2.2C42.2,52.9,43.2,51.9,43.2,50.7z"/>
			</g>
			<g>
				<path d="M45.4,32.8v17.9c0,1.2,1,2.2,2.2,2.2c1.2,0,2.2-1,2.2-2.2V32.8c0-1.2-1-2.2-2.2-2.2C46.4,30.5,45.4,31.5,45.4,32.8z"/>
			</g>
			<g>
				<path d="M55.9,108.7c3.5,0.4,7,0.4,10.5,0c1.2-0.1,2.1-1.2,2-2.5c-0.1-1.2-1.2-2.1-2.5-2c0,0-0.1,0-0.1,0l0,0
					c-3.2,0.4-6.3,0.4-9.5,0c-1.2-0.1-2.3,0.7-2.5,2C53.7,107.5,54.6,108.6,55.9,108.7z"/>
			</g>
			<g>
				<path d="M92.8,95.9c16.5-16.5,17.7-42.8,2.7-60.7c-0.8-0.9-2.2-1.1-3.2-0.3c0,0,0,0,0,0c-0.9,0.8-1.1,2.2-0.3,3.2
					c13.5,16.1,12.5,39.8-2.4,54.6c-0.9,0.9-0.9,2.3,0,3.2C90.5,96.8,91.9,96.8,92.8,95.9z"/>
			</g>
			<g>
				<polygon points="46.1,26.5 46.1,26.5 46.1,26.5 				"/>
			</g>
			<g>
				<path d="M70.7,24.9c1.2,0.3,2.4-0.4,2.7-1.7c0.3-1.2-0.4-2.4-1.7-2.7c-8.8-2.1-18-1.5-26.4,1.6c-1.2,0.4-1.7,1.7-1.3,2.9
					c0.3,0.9,1.2,1.5,2.1,1.5c0.3,0,0.5-0.1,0.8-0.1C54.5,23.5,62.8,23,70.7,24.9z"/>
			</g>
			<g>
				<path d="M28,37.3c-1-0.7-2.4-0.5-3.1,0.4c0,0,0,0,0,0.1c-13,17.8-11.1,42.4,4.5,58.1c0.9,0.9,2.3,0.9,3.2,0
					c0.9-0.9,0.9-2.3,0-3.2C25,85.1,20.7,74.8,20.8,64.2c0-8.5,2.7-16.9,7.7-23.8C29.2,39.4,29,38,28,37.3z"/>
			</g>
			<g>
				<path d="M16.8,38.2c0-1.2-1-2.2-2.2-2.2h-6c4.7-8.8,11.6-16.3,20.1-21.9c9.7-6.3,20.9-9.7,32.6-9.7S84,7.8,93.7,14.1
					c9.4,6.2,16.9,14.8,21.6,25c0.5,1.1,1.9,1.6,3,1.1c1.1-0.5,1.6-1.9,1.1-3c-5.1-11-13.1-20.3-23.3-26.9C85.7,3.6,73.6,0,61.1,0
					c-12.5,0-24.6,3.6-35,10.4C17,16.3,9.6,24.5,4.5,34V26c0-1.2-1-2.2-2.2-2.2S0,24.7,0,26v12.3c0,1.2,1,2.2,2.2,2.2h12.3
					C15.8,40.5,16.8,39.5,16.8,38.2z"/>
			</g>
			<g>
				<path d="M119.5,88h-12.3c-1.2,0-2.2,1-2.2,2.2s1,2.2,2.2,2.2h6.6c-4.7,8.8-11.6,16.3-20.1,21.9c-9.7,6.3-20.9,9.7-32.6,9.7
					s-22.9-3.3-32.6-9.7c-9.4-6.2-16.9-14.8-21.6-25c-0.5-1.1-1.9-1.6-3-1.1c-1.1,0.5-1.6,1.9-1.1,3c5.1,11,13.1,20.3,23.3,26.9
					c10.4,6.8,22.5,10.4,35,10.4c12.5,0,24.6-3.6,35-10.4c8.8-5.7,16-13.5,21.1-22.6v7c0,1.2,1,2.2,2.2,2.2s2.2-1,2.2-2.2V90.2
					C121.8,89,120.8,88,119.5,88z"/>
			</g>
		</g>
	</g>
</g>
<g id="Layer_2">
</g>
<g id="Layer_3">
</g>
<g id="Layer_4">
</g>
</svg>
